<?xml version="1.0" standalone="no"?><!-- Generator: Gravit.io --><svg xmlns="http://www.w3.org/2000/svg" xmlns:xlink="http://www.w3.org/1999/xlink" style="isolation:isolate" viewBox="728 321 292 292" width="292" height="292"><defs><clipPath id="_clipPath_P7rM1IpXG28xYQupW3GQdPM61beul0kF"><rect x="728" y="321" width="292" height="292"/></clipPath></defs><g clip-path="url(#_clipPath_P7rM1IpXG28xYQupW3GQdPM61beul0kF)"><circle vector-effect="non-scaling-stroke" cx="874.0000000000003" cy="467" r="145.9999999999999" fill="rgb(213,213,213)"/><path d=" M 818 405 L 818 481 C 818 493.142 827.858 503 840 503 L 885 503 C 887.208 503 889.56 504.68 890.25 506.75 L 890.25 506.75 C 895.079 521.238 908.905 536.302 921.105 540.368 L 921.105 540.368 C 925.462 541.821 927.113 540.76 924.789 538 L 924.789 538 C 918.283 530.273 915.352 515.766 918.25 505.625 L 918.25 505.625 C 918.664 504.176 920.792 503 923 503 L 946 503 C 958.142 503 968 493.142 968 481 L 968 405 C 968 392.858 958.142 383 946 383 L 840 383 C 827.858 383 818 392.858 818 405 Z " fill="rgb(138,137,137)" vector-effect="non-scaling-stroke" stroke-width="1" stroke="none" stroke-linejoin="miter" stroke-linecap="square" stroke-miterlimit="3"/><path d=" M 808.446 413 L 808.446 483.143 C 808.446 499.148 821.44 512.143 837.446 512.143 L 877.25 512.143 C 880.01 512.143 883.039 513.972 884.011 516.226 L 884.011 516.226 C 885.178 518.93 887.856 523.182 889.988 525.716 L 890.819 526.704 C 891.885 527.971 891.406 529 889.75 529 L 857 529 C 854.792 529 852.44 530.68 851.75 532.75 L 851.75 532.75 C 846.921 547.238 833.095 562.302 820.895 566.368 L 820.895 566.368 C 816.538 567.821 814.887 566.76 817.211 564 L 817.211 564 C 823.717 556.273 826.648 541.766 823.75 531.625 L 823.75 531.625 C 823.336 530.176 821.208 529 819 529 L 796 529 C 783.858 529 774 519.142 774 507 L 774 431 C 774 418.858 783.858 409 796 409 L 804.446 409 C 806.654 409 808.446 410.792 808.446 413 Z " fill="rgb(123,123,123)" vector-effect="non-scaling-stroke" stroke-width="1" stroke="none" stroke-linejoin="miter" stroke-linecap="square" stroke-miterlimit="3"/><circle vector-effect="non-scaling-stroke" cx="861.6666666666675" cy="445.666666666667" r="9.666666666666629" fill="rgb(213,213,213)"/><circle vector-effect="non-scaling-stroke" cx="893.2500000000007" cy="445.666666666667" r="9.666666666666629" fill="rgb(213,213,213)"/><circle vector-effect="non-scaling-stroke" cx="924.000000000001" cy="445.666666666667" r="9.666666666666629" fill="rgb(213,213,213)"/></g></svg>