<?xml version="1.0" standalone="no"?>
<!DOCTYPE svg PUBLIC "-//W3C//DTD SVG 20010904//EN"
 "http://www.w3.org/TR/2001/REC-SVG-20010904/DTD/svg10.dtd">
<svg version="1.0" xmlns="http://www.w3.org/2000/svg"
 width="700.000000pt" height="700.000000pt" viewBox="0 0 700.000000 700.000000"
 preserveAspectRatio="xMidYMid meet">
<metadata>
Created by potrace 1.11, written by Peter Selinger 2001-2013
</metadata>
<g transform="translate(0.000000,700.000000) scale(0.100000,-0.100000)"
fill="#000000" stroke="none">
<path d="M2545 5491 c-132 -38 -251 -132 -318 -252 -69 -123 -67 -87 -67
-1161 0 -662 3 -984 11 -1020 28 -138 135 -282 260 -351 114 -63 90 -61 761
-67 604 -5 617 -5 645 -26 30 -22 31 -24 116 -204 31 -63 86 -158 123 -210
167 -235 444 -448 606 -467 64 -8 71 11 26 74 -118 166 -171 341 -171 563 0
96 5 138 19 180 31 90 30 90 409 90 252 0 334 4 385 16 182 43 341 202 385
385 22 96 22 1972 0 2068 -43 181 -198 338 -380 386 -52 13 -227 15 -1405 14
-1242 0 -1350 -2 -1405 -18z m761 -1272 c59 -28 100 -79 120 -146 58 -201
-164 -368 -342 -257 -125 77 -149 240 -50 352 63 71 184 94 272 51z m781 -13
c91 -61 128 -178 89 -281 -20 -52 -88 -118 -141 -135 -96 -32 -206 8 -268 96
-34 49 -47 139 -27 199 16 49 75 113 125 137 61 29 167 21 222 -16z m708 15
c50 -22 109 -86 125 -136 20 -60 7 -150 -27 -199 -45 -63 -100 -97 -170 -103
-75 -7 -123 8 -176 56 -53 47 -77 101 -77 174 0 92 48 169 131 210 46 22 143
22 194 -2z"/>
<path d="M1506 4874 c-170 -42 -320 -182 -379 -354 l-22 -65 -3 -950 c-2 -627
1 -977 8 -1030 27 -206 172 -375 380 -440 46 -15 112 -19 407 -24 342 -6 353
-7 374 -27 67 -67 65 -367 -4 -569 -30 -88 -59 -145 -108 -214 -63 -88 -48
-114 50 -85 188 54 410 234 576 466 58 82 120 196 179 330 44 102 25 98 496
98 223 0 415 3 428 6 33 9 27 32 -29 109 -28 39 -71 106 -96 150 -47 86 -86
121 -150 136 -21 5 -272 9 -559 9 -483 0 -526 1 -597 19 -194 50 -356 177
-445 350 -82 157 -76 74 -82 1113 l-5 928 -28 27 c-27 28 -28 28 -180 30 -105
1 -170 -2 -211 -13z"/>
</g>
</svg>
